
<svg t="1654566186280" class="icon" viewBox="0 0 1024 1024" version="1.1" xmlns="http://www.w3.org/2000/svg" p-id="2220" width="48" height="48"><path d="M533.333333 981.333333a21.266667 21.266667 0 0 1-15.086666-6.246666l-128-128a21.333333 21.333333 0 0 1 30.173333-30.173334L512 908.5V554.666667H158.166667l91.586666 91.58a21.333333 21.333333 0 0 1-30.173333 30.173333l-128-128a21.333333 21.333333 0 0 1 0-30.173333l128-128a21.333333 21.333333 0 0 1 30.173333 30.173333L158.166667 512H512V158.166667L420.42 249.753333a21.333333 21.333333 0 0 1-30.173333-30.173333l128-128a21.333333 21.333333 0 0 1 30.173333 0l128 128a21.333333 21.333333 0 0 1-30.173333 30.173333L554.666667 158.166667V512h353.833333l-91.586667-91.58a21.333333 21.333333 0 0 1 30.173334-30.173333l128 128a21.333333 21.333333 0 0 1 0 30.173333l-128 128a21.333333 21.333333 0 0 1-30.173334-30.173333L908.5 554.666667H554.666667v353.833333l91.58-91.586667a21.333333 21.333333 0 0 1 30.173333 30.173334l-128 128A21.266667 21.266667 0 0 1 533.333333 981.333333z" fill="#8a8a8a" p-id="2221"></path></svg>
